<svg version="1.1" xmlns="http://www.w3.org/2000/svg" width="689" height="360"><defs><clipPath id="OKBbnfOQQcSZ"><path fill="none" stroke="none" d="M 334.5 35.5 L 684.5 35.5 L 684.5 285.5 L 334.5 285.5 L 334.5 35.5"/></clipPath><clipPath id="GZdSVXZTNUgC"><path fill="none" stroke="none" d="M 334.5 35.5 L 684.5 35.5 L 684.5 285.5 L 334.5 285.5 L 334.5 35.5"/></clipPath><clipPath id="lqEEvdDvNMdX"><path fill="none" stroke="none" d="M 334.5 35.5 L 684.5 35.5 L 684.5 285.5 L 334.5 285.5 L 334.5 35.5"/></clipPath><clipPath id="oJoVdueDQrpE"><path fill="none" stroke="none" d="M 334.5 35.5 L 684.5 35.5 L 684.5 285.5 L 334.5 285.5 L 334.5 35.5"/></clipPath><clipPath id="pRNhSTooQBDf"><path fill="none" stroke="none" d="M 334.5 35.5 L 684.5 35.5 L 684.5 285.5 L 334.5 285.5 L 334.5 35.5"/></clipPath><clipPath id="vaDgyBOUDNnO"><path fill="none" stroke="none" d="M 334.5 35.5 L 684.5 35.5 L 684.5 285.5 L 334.5 285.5 L 334.5 35.5"/></clipPath><clipPath id="LQuXuvFCLmeG"><path fill="none" stroke="none" d="M 334.5 35.5 L 684.5 35.5 L 684.5 285.5 L 334.5 285.5 L 334.5 35.5"/></clipPath><clipPath id="uWKIpvXNdGAl"><path fill="none" stroke="none" d="M 334.5 35.5 L 684.5 35.5 L 684.5 285.5 L 334.5 285.5 L 334.5 35.5"/></clipPath><clipPath id="BnBGMriKTWPb"><path fill="none" stroke="none" d="M 334.5 35.5 L 684.5 35.5 L 684.5 285.5 L 334.5 285.5 L 334.5 35.5"/></clipPath><clipPath id="kHErbgFwziGx"><path fill="none" stroke="none" d="M 334.5 35.5 L 684.5 35.5 L 684.5 285.5 L 334.5 285.5 L 334.5 35.5"/></clipPath></defs><path fill="rgb(255,255,255)" stroke="none" paint-order="stroke" d="M 0.5 0.5 L 689.5 0.5 L 689.5 360.5 L 0.5 360.5 L 0.5 0.5" fill-opacity="1"/><rect fill="#FFFFFF" stroke="none" x="334" y="35" width="350" height="250" transform="matrix(1, 0, 0, 1, 0.5, 0.5)"/><path fill="rgb(255,255,255)" stroke="none" paint-order="stroke" d="M 334.5 35.5 L 684.5 35.5 L 684.5 285.5 L 334.5 285.5 L 334.5 35.5" fill-opacity="1"/><path fill="none" stroke="rgb(229,229,229)" paint-order="fill" d="M 334.5 35.5 L 684.5 35.5 L 684.5 285.5 L 334.5 285.5 L 334.5 35.5" stroke-opacity="1" stroke-linejoin="bevel" stroke-miterlimit="10" stroke-dasharray=""/><path fill="none" stroke="rgb(229,229,229)" paint-order="fill" d="M 341.5 285.5 L 341.5 35.5 M 408.5 285.5 L 408.5 35.5 M 475.5 285.5 L 475.5 35.5 M 543.5 285.5 L 543.5 35.5 M 610.5 285.5 L 610.5 35.5 M 677.5 285.5 L 677.5 35.5" stroke-opacity="1" stroke-linejoin="bevel" stroke-miterlimit="10" stroke-dasharray="" clip-path="url(#OKBbnfOQQcSZ)"/><path fill="rgb(31,119,179)" stroke="rgb(31,119,179)" paint-order="fill" d="M 639.27099609375 60.5 A 3.5 3.5 0 0 1 632.27099609375 60.5 A 3.5 3.5 0 0 1 639.27099609375 60.5" fill-opacity="0.5019607843137255" clip-path="url(#BnBGMriKTWPb)" stroke-opacity="0.5019607843137255" stroke-linejoin="bevel" stroke-miterlimit="10" stroke-dasharray=""/><path fill="rgb(255,126,14)" stroke="rgb(255,126,14)" paint-order="fill" d="M 670.05126953125 110.5 A 3.5 3.5 0 0 1 663.05126953125 110.5 A 3.5 3.5 0 0 1 670.05126953125 110.5" fill-opacity="0.5019607843137255" clip-path="url(#BnBGMriKTWPb)" stroke-opacity="0.5019607843137255" stroke-linejoin="bevel" stroke-miterlimit="10" stroke-dasharray=""/><path fill="rgb(43,160,43)" stroke="rgb(43,160,43)" paint-order="fill" d="M 598.390380859375 160.5 A 3.5 3.5 0 0 1 591.390380859375 160.5 A 3.5 3.5 0 0 1 598.390380859375 160.5" fill-opacity="0.5019607843137255" clip-path="url(#BnBGMriKTWPb)" stroke-opacity="0.5019607843137255" stroke-linejoin="bevel" stroke-miterlimit="10" stroke-dasharray=""/><path fill="rgb(214,38,40)" stroke="rgb(214,38,40)" paint-order="fill" d="M 681.2692260742188 210.5 A 3.5 3.5 0 0 1 674.2692260742188 210.5 A 3.5 3.5 0 0 1 681.2692260742188 210.5" fill-opacity="0.5019607843137255" clip-path="url(#BnBGMriKTWPb)" stroke-opacity="0.5019607843137255" stroke-linejoin="bevel" stroke-miterlimit="10" stroke-dasharray=""/><path fill="rgb(147,103,188)" stroke="rgb(147,103,188)" paint-order="fill" d="M 681.2692260742188 260.5 A 3.5 3.5 0 0 1 674.2692260742188 260.5 A 3.5 3.5 0 0 1 681.2692260742188 260.5" fill-opacity="0.5019607843137255" clip-path="url(#BnBGMriKTWPb)" stroke-opacity="0.5019607843137255" stroke-linejoin="bevel" stroke-miterlimit="10" stroke-dasharray=""/><path fill="none" stroke="rgb(0,0,0)" paint-order="fill" d="M 334.5 285.5 L 684.5 285.5" stroke-opacity="1" stroke-linejoin="bevel" stroke-miterlimit="10" stroke-dasharray=""/><path fill="none" stroke="rgb(0,0,0)" paint-order="fill" d="M 341.5 291.5 L 341.5 283.5 M 408.5 291.5 L 408.5 283.5 M 475.5 291.5 L 475.5 283.5 M 543.5 291.5 L 543.5 283.5 M 610.5 291.5 L 610.5 283.5 M 677.5 291.5 L 677.5 283.5" stroke-opacity="1" stroke-linejoin="bevel" stroke-miterlimit="10" stroke-dasharray=""/><path fill="none" stroke="rgb(0,0,0)" paint-order="fill" d="M 341.5 289.5 L 341.5 285.5 M 354.5 289.5 L 354.5 285.5 M 368.5 289.5 L 368.5 285.5 M 381.5 289.5 L 381.5 285.5 M 395.5 289.5 L 395.5 285.5 M 408.5 289.5 L 408.5 285.5 M 422.5 289.5 L 422.5 285.5 M 435.5 289.5 L 435.5 285.5 M 448.5 289.5 L 448.5 285.5 M 462.5 289.5 L 462.5 285.5 M 475.5 289.5 L 475.5 285.5 M 489.5 289.5 L 489.5 285.5 M 502.5 289.5 L 502.5 285.5 M 516.5 289.5 L 516.5 285.5 M 529.5 289.5 L 529.5 285.5 M 543.5 289.5 L 543.5 285.5 M 556.5 289.5 L 556.5 285.5 M 570.5 289.5 L 570.5 285.5 M 583.5 289.5 L 583.5 285.5 M 597.5 289.5 L 597.5 285.5 M 610.5 289.5 L 610.5 285.5 M 623.5 289.5 L 623.5 285.5 M 637.5 289.5 L 637.5 285.5 M 650.5 289.5 L 650.5 285.5 M 664.5 289.5 L 664.5 285.5 M 677.5 289.5 L 677.5 285.5" stroke-opacity="1" stroke-linejoin="bevel" stroke-miterlimit="10" stroke-dasharray=""/><text fill="rgb(68,68,68)" stroke="none" font-family="helvetica" font-size="14pt" font-style="normal" font-weight="normal" text-decoration="normal" x="334.76410722732544" y="310" text-anchor="start" dominant-baseline="alphabetic" transform="matrix(1, 0, 0, 1, 0.5, 0.5)" fill-opacity="1">0</text><text fill="rgb(68,68,68)" stroke="none" font-family="helvetica" font-size="14pt" font-style="normal" font-weight="normal" text-decoration="normal" x="396.1051187515259" y="310" text-anchor="start" dominant-baseline="alphabetic" transform="matrix(1, 0, 0, 1, 0.5, 0.5)" fill-opacity="1">20</text><text fill="rgb(68,68,68)" stroke="none" font-family="helvetica" font-size="14pt" font-style="normal" font-weight="normal" text-decoration="normal" x="463.41282749176025" y="310" text-anchor="start" dominant-baseline="alphabetic" transform="matrix(1, 0, 0, 1, 0.5, 0.5)" fill-opacity="1">40</text><text fill="rgb(68,68,68)" stroke="none" font-family="helvetica" font-size="14pt" font-style="normal" font-weight="normal" text-decoration="normal" x="530.7205362319946" y="310" text-anchor="start" dominant-baseline="alphabetic" transform="matrix(1, 0, 0, 1, 0.5, 0.5)" fill-opacity="1">60</text><text fill="rgb(68,68,68)" stroke="none" font-family="helvetica" font-size="14pt" font-style="normal" font-weight="normal" text-decoration="normal" x="598.0282144546509" y="310" text-anchor="start" dominant-baseline="alphabetic" transform="matrix(1, 0, 0, 1, 0.5, 0.5)" fill-opacity="1">80</text><text fill="rgb(68,68,68)" stroke="none" font-family="helvetica" font-size="14pt" font-style="normal" font-weight="normal" text-decoration="normal" x="653.2000007629395" y="310" text-anchor="start" dominant-baseline="alphabetic" transform="matrix(1, 0, 0, 1, 0.5, 0.5)" fill-opacity="1">100</text><text fill="rgb(68,68,68)" stroke="none" font-family="helvetica" font-size="14pt" font-style="normal" font-weight="normal" text-decoration="normal" x="411.06666564941406" y="336" text-anchor="start" dominant-baseline="alphabetic" transform="matrix(1, 0, 0, 1, 0.5, 0.5)" fill-opacity="1">Satisfaction rate [%]</text><path fill="none" stroke="rgb(0,0,0)" paint-order="fill" d="M 334.5 285.5 L 334.5 35.5" stroke-opacity="1" stroke-linejoin="bevel" stroke-miterlimit="10" stroke-dasharray=""/><path fill="none" stroke="rgb(0,0,0)" paint-order="fill" d="M 328.5 260.5 L 336.5 260.5 M 328.5 210.5 L 336.5 210.5 M 328.5 160.5 L 336.5 160.5 M 328.5 110.5 L 336.5 110.5 M 328.5 60.5 L 336.5 60.5" stroke-opacity="1" stroke-linejoin="bevel" stroke-miterlimit="10" stroke-dasharray=""/><path fill="none" stroke="rgb(0,0,0)" paint-order="fill" d="" stroke-opacity="1" stroke-linejoin="bevel" stroke-miterlimit="10" stroke-dasharray=""/><text fill="rgb(68,68,68)" stroke="none" font-family="helvetica" font-size="14pt" font-style="normal" font-weight="normal" text-decoration="normal" x="87.08332824707031" y="266.5" text-anchor="start" dominant-baseline="alphabetic" transform="matrix(1, 0, 0, 1, 0.5, 0.5)" fill-opacity="1">Self-links/Intermolecular</text><text fill="rgb(68,68,68)" stroke="none" font-family="helvetica" font-size="14pt" font-style="normal" font-weight="normal" text-decoration="normal" x="122.68333435058594" y="216.5" text-anchor="start" dominant-baseline="alphabetic" transform="matrix(1, 0, 0, 1, 0.5, 0.5)" fill-opacity="1">Self-links/Ambiguous</text><text fill="rgb(68,68,68)" stroke="none" font-family="helvetica" font-size="14pt" font-style="normal" font-weight="normal" text-decoration="normal" x="2.98333740234375" y="166.5" text-anchor="start" dominant-baseline="alphabetic" transform="matrix(1, 0, 0, 1, 0.5, 0.5)" fill-opacity="1">Heteromeric links/Intermolecular</text><text fill="rgb(68,68,68)" stroke="none" font-family="helvetica" font-size="14pt" font-style="normal" font-weight="normal" text-decoration="normal" x="87" y="116.5" text-anchor="start" dominant-baseline="alphabetic" transform="matrix(1, 0, 0, 1, 0.5, 0.5)" fill-opacity="1">Self-links/Intramolecular</text><text fill="rgb(68,68,68)" stroke="none" font-family="helvetica" font-size="14pt" font-style="normal" font-weight="normal" text-decoration="normal" x="297.46666717529297" y="66.5" text-anchor="start" dominant-baseline="alphabetic" transform="matrix(1, 0, 0, 1, 0.5, 0.5)" fill-opacity="1">All</text><text fill="rgb(68,68,68)" stroke="none" font-family="helvetica" font-size="14pt" font-style="normal" font-weight="bold" text-decoration="normal" x="334" y="25" text-anchor="start" dominant-baseline="alphabetic" transform="matrix(1, 0, 0, 1, 0.5, 0.5)" fill-opacity="1">Satisfaction rates in Model Group 1</text></svg>