<svg version="1.1" xmlns="http://www.w3.org/2000/svg" width="562" height="210"><defs><clipPath id="gJDaWNnezJou"><path fill="none" stroke="none" d="M 57.5 35.5 L 557.5 35.5 L 557.5 135.5 L 57.5 135.5 L 57.5 35.5"/></clipPath><clipPath id="uoFtxLbrXdXy"><path fill="none" stroke="none" d="M 57.5 35.5 L 557.5 35.5 L 557.5 135.5 L 57.5 135.5 L 57.5 35.5"/></clipPath><clipPath id="JQlXptLSCsag"><path fill="none" stroke="none" d="M 57.5 35.5 L 557.5 35.5 L 557.5 135.5 L 57.5 135.5 L 57.5 35.5"/></clipPath><clipPath id="cJgGXGTGohbV"><path fill="none" stroke="none" d="M 57.5 35.5 L 557.5 35.5 L 557.5 135.5 L 57.5 135.5 L 57.5 35.5"/></clipPath><clipPath id="ZtmeEutwXhEJ"><path fill="none" stroke="none" d="M 57.5 35.5 L 557.5 35.5 L 557.5 135.5 L 57.5 135.5 L 57.5 35.5"/></clipPath><clipPath id="CBJcZTcRToSF"><path fill="none" stroke="none" d="M 57.5 35.5 L 557.5 35.5 L 557.5 135.5 L 57.5 135.5 L 57.5 35.5"/></clipPath><clipPath id="bNCyIcqfLmrv"><path fill="none" stroke="none" d="M 57.5 35.5 L 557.5 35.5 L 557.5 135.5 L 57.5 135.5 L 57.5 35.5"/></clipPath></defs><path fill="rgb(255,255,255)" stroke="none" paint-order="stroke" d="M 0.5 0.5 L 562.5 0.5 L 562.5 210.5 L 0.5 210.5 L 0.5 0.5" fill-opacity="1"/><rect fill="#FFFFFF" stroke="none" x="57" y="35" width="500" height="100" transform="matrix(1, 0, 0, 1, 0.5, 0.5)"/><path fill="rgb(255,255,255)" stroke="none" paint-order="stroke" d="M 57.5 35.5 L 557.5 35.5 L 557.5 135.5 L 57.5 135.5 L 57.5 35.5" fill-opacity="1"/><path fill="none" stroke="rgb(229,229,229)" paint-order="fill" d="M 57.5 35.5 L 557.5 35.5 L 557.5 135.5 L 57.5 135.5 L 57.5 35.5" stroke-opacity="1" stroke-linejoin="bevel" stroke-miterlimit="10" stroke-dasharray=""/><path fill="none" stroke="rgb(229,229,229)" paint-order="fill" d="M 80.5 135.5 L 80.5 35.5 M 173.5 135.5 L 173.5 35.5 M 267.5 135.5 L 267.5 35.5 M 360.5 135.5 L 360.5 35.5 M 454.5 135.5 L 454.5 35.5 M 547.5 135.5 L 547.5 35.5" stroke-opacity="1" stroke-linejoin="bevel" stroke-miterlimit="10" stroke-dasharray="" clip-path="url(#gJDaWNnezJou)"/><path fill="none" stroke="rgb(229,229,229)" paint-order="fill" d="M 57.5 97.5 L 557.5 97.5 M 57.5 59.5 L 557.5 59.5" stroke-opacity="1" stroke-linejoin="bevel" stroke-miterlimit="10" stroke-dasharray="" clip-path="url(#uoFtxLbrXdXy)"/><path fill="none" stroke="rgb(31,119,179)" paint-order="fill" d="M 80.2272720336914 135.5 L 80.2272720336914 40.261905670166016 L 82.09783172607422 40.261905670166016 L 82.09783172607422 78.35713958740234 L 83.9683837890625 78.35713958740234 L 83.9683837890625 135.5 L 85.83894348144531 135.5 L 85.83894348144531 116.45237731933594 L 87.70950317382812 116.45237731933594 L 87.70950317382812 116.45237731933594 L 89.58006286621094 116.45237731933594 L 89.58006286621094 78.35713958740234 L 91.45061492919922 78.35713958740234 L 91.45061492919922 135.5 L 93.32117462158203 135.5 L 93.32117462158203 97.4047622680664 L 95.19173431396484 97.4047622680664 L 95.19173431396484 116.45237731933594 L 97.06228637695312 116.45237731933594 L 97.06228637695312 135.5 L 98.93284606933594 135.5 L 98.93284606933594 116.45237731933594 L 100.80340576171875 116.45237731933594 L 100.80340576171875 78.35713958740234 L 102.67396545410156 78.35713958740234 L 102.67396545410156 116.45237731933594 L 104.54451751708984 116.45237731933594 L 104.54451751708984 116.45237731933594 L 106.41507720947266 116.45237731933594 L 106.41507720947266 78.35713958740234 L 108.28563690185547 78.35713958740234 L 108.28563690185547 116.45237731933594 L 110.15618896484375 116.45237731933594 L 110.15618896484375 135.5 L 112.02674865722656 135.5 L 112.02674865722656 116.45237731933594 L 113.89730834960938 116.45237731933594 L 113.89730834960938 97.4047622680664 L 115.76786041259766 97.4047622680664 L 115.76786041259766 78.35713958740234 L 117.63842010498047 78.35713958740234 L 117.63842010498047 97.4047622680664 L 119.50897979736328 97.4047622680664 L 119.50897979736328 116.45237731933594 L 121.3795394897461 116.45237731933594 L 121.3795394897461 116.45237731933594 L 123.25009155273438 116.45237731933594 L 123.25009155273438 116.45237731933594 L 125.12065124511719 116.45237731933594 L 125.12065124511719 135.5 L 126.9912109375 135.5 L 126.9912109375 135.5 L 128.8617706298828 135.5 L 128.8617706298828 135.5 L 130.73233032226562 135.5 L 130.73233032226562 116.45237731933594 L 132.60287475585938 116.45237731933594 L 132.60287475585938 135.5 L 134.4734344482422 135.5 L 134.4734344482422 116.45237731933594 L 136.343994140625 116.45237731933594 L 136.343994140625 116.45237731933594 L 138.2145538330078 116.45237731933594 L 138.2145538330078 135.5 L 140.08511352539062 135.5 L 140.08511352539062 135.5 L 141.95567321777344 135.5 L 141.95567321777344 135.5 L 143.8262176513672 135.5 L 143.8262176513672 135.5 L 145.69677734375 135.5 L 145.69677734375 135.5 L 147.5673370361328 135.5 L 147.5673370361328 135.5 L 149.43789672851562 135.5 L 149.43789672851562 135.5 L 151.30845642089844 135.5 L 151.30845642089844 135.5 L 153.17901611328125 135.5 L 153.17901611328125 135.5 L 155.04957580566406 135.5 L 155.04957580566406 135.5 L 156.9201202392578 135.5 L 156.9201202392578 135.5 L 158.79067993164062 135.5 L 158.79067993164062 135.5 L 160.66123962402344 135.5 L 160.66123962402344 135.5 L 162.53179931640625 135.5 L 162.53179931640625 135.5 L 164.40235900878906 135.5 L 164.40235900878906 135.5 L 166.27291870117188 135.5 L 166.27291870117188 135.5 L 168.1434783935547 135.5 L 168.1434783935547 135.5 L 170.01402282714844 135.5 L 170.01402282714844 135.5 L 171.88458251953125 135.5 L 171.88458251953125 135.5 L 173.75514221191406 135.5 L 173.75514221191406 135.5 L 175.62570190429688 135.5 L 175.62570190429688 135.5 L 177.4962615966797 135.5 L 177.4962615966797 78.35713958740234 L 179.3668212890625 78.35713958740234 L 179.3668212890625 135.5 L 181.2373809814453 135.5 L 181.2373809814453 135.5 L 183.10792541503906 135.5 L 183.10792541503906 135.5 L 184.97848510742188 135.5 L 184.97848510742188 135.5 L 186.8490447998047 135.5 L 186.8490447998047 135.5 L 188.7196044921875 135.5 L 188.7196044921875 116.45237731933594 L 190.5901641845703 116.45237731933594 L 190.5901641845703 135.5 L 192.46072387695312 135.5 L 192.46072387695312 116.45237731933594 L 194.33126831054688 116.45237731933594 L 194.33126831054688 135.5 L 196.2018280029297 135.5 L 196.2018280029297 135.5 L 198.0723876953125 135.5 L 198.0723876953125 135.5 L 199.9429473876953 135.5 L 199.9429473876953 135.5 L 201.81350708007812 135.5 L 201.81350708007812 135.5 L 203.68406677246094 135.5 L 203.68406677246094 135.5 L 205.55462646484375 135.5 L 205.55462646484375 135.5 L 207.4251708984375 135.5 L 207.4251708984375 135.5 L 209.2957305908203 135.5 L 209.2957305908203 135.5 L 211.16629028320312 135.5 L 211.16629028320312 135.5 L 213.03684997558594 135.5 L 213.03684997558594 135.5 L 214.90740966796875 135.5 L 214.90740966796875 135.5 L 216.77796936035156 135.5 L 216.77796936035156 135.5 L 218.64852905273438 135.5 L 218.64852905273438 135.5 L 220.51907348632812 135.5 L 220.51907348632812 135.5 L 222.38963317871094 135.5 L 222.38963317871094 135.5 L 224.26019287109375 135.5 L 224.26019287109375 135.5 L 226.13075256347656 135.5 L 226.13075256347656 135.5 L 228.00131225585938 135.5 L 228.00131225585938 135.5 L 229.8718719482422 135.5 L 229.8718719482422 135.5 L 231.742431640625 135.5 L 231.742431640625 135.5 L 233.61297607421875 135.5 L 233.61297607421875 135.5 L 235.48353576660156 135.5 L 235.48353576660156 116.45237731933594 L 237.35409545898438 116.45237731933594 L 237.35409545898438 135.5 L 239.2246551513672 135.5 L 239.2246551513672 135.5 L 241.09521484375 135.5 L 241.09521484375 135.5 L 242.9657745361328 135.5 L 242.9657745361328 135.5 L 244.83631896972656 135.5 L 244.83631896972656 135.5 L 246.70687866210938 135.5 L 246.70687866210938 135.5 L 248.5774383544922 135.5 L 248.5774383544922 135.5 L 250.447998046875 135.5 L 250.447998046875 135.5 L 252.3185577392578 135.5 L 252.3185577392578 135.5 L 254.18911743164062 135.5 L 254.18911743164062 135.5 L 256.05967712402344 135.5 L 256.05967712402344 135.5 L 257.93023681640625 135.5 L 257.93023681640625 135.5 L 259.80078125 135.5 L 259.80078125 135.5 L 261.6713562011719 135.5 L 261.6713562011719 135.5 L 263.5419006347656 135.5 L 263.5419006347656 135.5 L 265.4124450683594 135.5 L 265.4124450683594 135.5 L 267.28302001953125 135.5 L 267.28302001953125 135.5 L 269.153564453125 135.5 L 269.153564453125 135.5 L 271.0241394042969 135.5 L 271.0241394042969 135.5 L 272.8946838378906 135.5 L 272.8946838378906 135.5 L 274.7652587890625 135.5 L 274.7652587890625 135.5 L 276.63580322265625 135.5 L 276.63580322265625 135.5 L 278.50634765625 135.5 L 278.50634765625 135.5 L 280.3769226074219 135.5 L 280.3769226074219 135.5 L 282.2474670410156 135.5 L 282.2474670410156 135.5 L 284.1180419921875 135.5 L 284.1180419921875 135.5 L 285.98858642578125 135.5 L 285.98858642578125 135.5 L 287.8591613769531 135.5 L 287.8591613769531 135.5 L 289.7297058105469 135.5 L 289.7297058105469 135.5 L 291.6002502441406 135.5 L 291.6002502441406 135.5 L 293.4708251953125 135.5 L 293.4708251953125 135.5 L 295.34136962890625 135.5 L 295.34136962890625 135.5 L 297.2119445800781 135.5 L 297.2119445800781 135.5 L 299.0824890136719 135.5 L 299.0824890136719 135.5 L 300.95306396484375 135.5 L 300.95306396484375 135.5 L 302.8236083984375 135.5 L 302.8236083984375 135.5 L 304.69415283203125 135.5 L 304.69415283203125 135.5 L 306.5647277832031 135.5 L 306.5647277832031 135.5 L 308.4352722167969 135.5 L 308.4352722167969 135.5 L 310.30584716796875 135.5 L 310.30584716796875 135.5 L 312.1763916015625 135.5 L 312.1763916015625 135.5 L 314.04693603515625 135.5 L 314.04693603515625 135.5 L 315.9175109863281 135.5 L 315.9175109863281 135.5 L 317.7880554199219 135.5 L 317.7880554199219 135.5 L 319.65863037109375 135.5 L 319.65863037109375 135.5 L 321.5291748046875 135.5 L 321.5291748046875 135.5 L 323.3997497558594 135.5 L 323.3997497558594 135.5 L 325.2702941894531 135.5 L 325.2702941894531 135.5 L 327.1408386230469 135.5 L 327.1408386230469 135.5 L 329.01141357421875 135.5 L 329.01141357421875 135.5 L 330.8819580078125 135.5 L 330.8819580078125 135.5 L 332.7525329589844 135.5 L 332.7525329589844 135.5 L 334.6230773925781 135.5 L 334.6230773925781 135.5 L 336.49365234375 135.5 L 336.49365234375 135.5 L 338.36419677734375 135.5 L 338.36419677734375 135.5 L 340.2347412109375 135.5 L 340.2347412109375 135.5 L 342.1053161621094 135.5 L 342.1053161621094 135.5 L 343.9758605957031 135.5 L 343.9758605957031 135.5 L 345.846435546875 135.5 L 345.846435546875 135.5 L 347.71697998046875 135.5 L 347.71697998046875 135.5 L 349.5875549316406 135.5 L 349.5875549316406 135.5 L 351.4580993652344 135.5 L 351.4580993652344 135.5 L 353.3286437988281 135.5 L 353.3286437988281 135.5 L 355.19921875 135.5 L 355.19921875 135.5 L 357.06976318359375 135.5 L 357.06976318359375 135.5 L 358.9403381347656 135.5 L 358.9403381347656 135.5 L 360.8108825683594 135.5 L 360.8108825683594 135.5 L 362.68145751953125 135.5 L 362.68145751953125 135.5 L 364.552001953125 135.5 L 364.552001953125 135.5 L 366.42254638671875 135.5 L 366.42254638671875 135.5 L 368.2931213378906 135.5 L 368.2931213378906 135.5 L 370.1636657714844 135.5 L 370.1636657714844 135.5 L 372.03424072265625 135.5 L 372.03424072265625 135.5 L 373.90478515625 135.5 L 373.90478515625 135.5 L 375.7753601074219 135.5 L 375.7753601074219 135.5 L 377.6459045410156 135.5 L 377.6459045410156 135.5 L 379.5164489746094 135.5 L 379.5164489746094 135.5 L 381.38702392578125 135.5 L 381.38702392578125 135.5 L 383.257568359375 135.5 L 383.257568359375 135.5 L 385.1281433105469 135.5 L 385.1281433105469 135.5 L 386.9986877441406 135.5 L 386.9986877441406 135.5 L 388.8692626953125 135.5 L 388.8692626953125 135.5 L 390.73980712890625 135.5 L 390.73980712890625 135.5 L 392.6103515625 135.5 L 392.6103515625 135.5 L 394.4809265136719 135.5 L 394.4809265136719 135.5 L 396.3514709472656 135.5 L 396.3514709472656 135.5 L 398.2220458984375 135.5 L 398.2220458984375 135.5 L 400.09259033203125 135.5 L 400.09259033203125 135.5 L 401.963134765625 135.5 L 401.963134765625 135.5 L 403.8337097167969 135.5 L 403.8337097167969 135.5 L 405.7042541503906 135.5 L 405.7042541503906 135.5 L 407.5748291015625 135.5 L 407.5748291015625 135.5 L 409.44537353515625 135.5 L 409.44537353515625 135.5 L 411.3159484863281 135.5 L 411.3159484863281 135.5 L 413.1864929199219 135.5 L 413.1864929199219 135.5 L 415.0570373535156 135.5 L 415.0570373535156 135.5 L 416.9276123046875 135.5 L 416.9276123046875 135.5 L 418.79815673828125 135.5 L 418.79815673828125 135.5 L 420.6687316894531 135.5 L 420.6687316894531 135.5 L 422.5392761230469 135.5 L 422.5392761230469 135.5 L 424.40985107421875 135.5 L 424.40985107421875 135.5 L 426.2803955078125 135.5 L 426.2803955078125 135.5 L 428.15093994140625 135.5 L 428.15093994140625 135.5 L 430.0215148925781 135.5 L 430.0215148925781 135.5 L 431.8920593261719 135.5 L 431.8920593261719 135.5 L 433.76263427734375 135.5 L 433.76263427734375 135.5 L 435.6331787109375 135.5 L 435.6331787109375 135.5 L 437.5037536621094 135.5 L 437.5037536621094 135.5 L 439.3742980957031 135.5 L 439.3742980957031 135.5 L 441.2448425292969 135.5 L 441.2448425292969 135.5 L 443.11541748046875 135.5 L 443.11541748046875 135.5 L 444.9859619140625 135.5 L 444.9859619140625 135.5 L 446.8565368652344 135.5 L 446.8565368652344 135.5 L 448.7270812988281 135.5 L 448.7270812988281 135.5 L 450.59765625 135.5 L 450.59765625 135.5 L 452.46820068359375 135.5 L 452.46820068359375 135.5 L 454.3387451171875 135.5 L 454.3387451171875 135.5 L 456.2093200683594 135.5 L 456.2093200683594 135.5 L 458.0798645019531 135.5 L 458.0798645019531 135.5 L 459.950439453125 135.5 L 459.950439453125 135.5 L 461.82098388671875 135.5 L 461.82098388671875 135.5 L 463.6915588378906 135.5 L 463.6915588378906 135.5 L 465.5621032714844 135.5 L 465.5621032714844 135.5 L 467.4326477050781 135.5 L 467.4326477050781 135.5 L 469.30322265625 135.5 L 469.30322265625 135.5 L 471.17376708984375 135.5 L 471.17376708984375 135.5 L 473.0443420410156 135.5 L 473.0443420410156 135.5 L 474.9148864746094 135.5 L 474.9148864746094 135.5 L 476.78546142578125 135.5 L 476.78546142578125 135.5 L 478.656005859375 135.5 L 478.656005859375 135.5 L 480.52655029296875 135.5 L 480.52655029296875 135.5 L 482.3971252441406 135.5 L 482.3971252441406 135.5 L 484.2676696777344 135.5 L 484.2676696777344 135.5 L 486.13824462890625 135.5 L 486.13824462890625 135.5 L 488.0087890625 135.5 L 488.0087890625 135.5 L 489.8793640136719 135.5 L 489.8793640136719 135.5 L 491.7499084472656 135.5 L 491.7499084472656 135.5 L 493.6204528808594 135.5 L 493.6204528808594 135.5 L 495.49102783203125 135.5 L 495.49102783203125 135.5 L 497.361572265625 135.5 L 497.361572265625 135.5 L 499.2321472167969 135.5 L 499.2321472167969 135.5 L 501.1026916503906 135.5 L 501.1026916503906 135.5 L 502.9732360839844 135.5 L 502.9732360839844 135.5 L 504.84381103515625 135.5 L 504.84381103515625 135.5 L 506.71435546875 135.5 L 506.71435546875 135.5 L 508.5849304199219 135.5 L 508.5849304199219 135.5 L 510.4554748535156 135.5 L 510.4554748535156 135.5 L 512.3260498046875 135.5 L 512.3260498046875 135.5 L 514.1965942382812 135.5 L 514.1965942382812 135.5 L 516.067138671875 135.5 L 516.067138671875 135.5 L 517.9376831054688 135.5 L 517.9376831054688 135.5 L 519.8082885742188 135.5 L 519.8082885742188 135.5 L 521.6788330078125 135.5 L 521.6788330078125 135.5 L 523.5493774414062 135.5 L 523.5493774414062 135.5 L 525.419921875 135.5 L 525.419921875 135.5 L 527.29052734375 135.5 L 527.29052734375 135.5 L 529.1610717773438 135.5 L 529.1610717773438 135.5 L 531.0316162109375 135.5 L 531.0316162109375 135.5 L 532.9021606445312 135.5 L 532.9021606445312 116.45237731933594 L 534.772705078125 116.45237731933594 L 534.772705078125 135.5" stroke-opacity="1" stroke-linejoin="bevel" stroke-miterlimit="10" stroke-width="2" stroke-dasharray="" clip-path="url(#JQlXptLSCsag)"/><path fill="rgb(31,119,179)" stroke="none" paint-order="stroke" d="M 80.2272720336914 135.5 L 80.2272720336914 40.261905670166016 L 82.09783172607422 40.261905670166016 L 82.09783172607422 78.35713958740234 L 83.9683837890625 78.35713958740234 L 83.9683837890625 135.5 L 85.83894348144531 135.5 L 85.83894348144531 116.45237731933594 L 87.70950317382812 116.45237731933594 L 87.70950317382812 116.45237731933594 L 89.58006286621094 116.45237731933594 L 89.58006286621094 78.35713958740234 L 91.45061492919922 78.35713958740234 L 91.45061492919922 135.5 L 93.32117462158203 135.5 L 93.32117462158203 97.4047622680664 L 95.19173431396484 97.4047622680664 L 95.19173431396484 116.45237731933594 L 97.06228637695312 116.45237731933594 L 97.06228637695312 135.5 L 98.93284606933594 135.5 L 98.93284606933594 116.45237731933594 L 100.80340576171875 116.45237731933594 L 100.80340576171875 78.35713958740234 L 102.67396545410156 78.35713958740234 L 102.67396545410156 116.45237731933594 L 104.54451751708984 116.45237731933594 L 104.54451751708984 116.45237731933594 L 106.41507720947266 116.45237731933594 L 106.41507720947266 78.35713958740234 L 108.28563690185547 78.35713958740234 L 108.28563690185547 116.45237731933594 L 110.15618896484375 116.45237731933594 L 110.15618896484375 135.5 L 112.02674865722656 135.5 L 112.02674865722656 116.45237731933594 L 113.89730834960938 116.45237731933594 L 113.89730834960938 97.4047622680664 L 115.76786041259766 97.4047622680664 L 115.76786041259766 78.35713958740234 L 117.63842010498047 78.35713958740234 L 117.63842010498047 97.4047622680664 L 119.50897979736328 97.4047622680664 L 119.50897979736328 116.45237731933594 L 121.3795394897461 116.45237731933594 L 121.3795394897461 116.45237731933594 L 123.25009155273438 116.45237731933594 L 123.25009155273438 116.45237731933594 L 125.12065124511719 116.45237731933594 L 125.12065124511719 135.5 L 126.9912109375 135.5 L 126.9912109375 135.5 L 128.8617706298828 135.5 L 128.8617706298828 135.5 L 130.73233032226562 135.5 L 130.73233032226562 116.45237731933594 L 132.60287475585938 116.45237731933594 L 132.60287475585938 135.5 L 134.4734344482422 135.5 L 134.4734344482422 116.45237731933594 L 136.343994140625 116.45237731933594 L 136.343994140625 116.45237731933594 L 138.2145538330078 116.45237731933594 L 138.2145538330078 135.5 L 140.08511352539062 135.5 L 140.08511352539062 135.5 L 141.95567321777344 135.5 L 141.95567321777344 135.5 L 143.8262176513672 135.5 L 143.8262176513672 135.5 L 145.69677734375 135.5 L 145.69677734375 135.5 L 147.5673370361328 135.5 L 147.5673370361328 135.5 L 149.43789672851562 135.5 L 149.43789672851562 135.5 L 151.30845642089844 135.5 L 151.30845642089844 135.5 L 153.17901611328125 135.5 L 153.17901611328125 135.5 L 155.04957580566406 135.5 L 155.04957580566406 135.5 L 156.9201202392578 135.5 L 156.9201202392578 135.5 L 158.79067993164062 135.5 L 158.79067993164062 135.5 L 160.66123962402344 135.5 L 160.66123962402344 135.5 L 162.53179931640625 135.5 L 162.53179931640625 135.5 L 164.40235900878906 135.5 L 164.40235900878906 135.5 L 166.27291870117188 135.5 L 166.27291870117188 135.5 L 168.1434783935547 135.5 L 168.1434783935547 135.5 L 170.01402282714844 135.5 L 170.01402282714844 135.5 L 171.88458251953125 135.5 L 171.88458251953125 135.5 L 173.75514221191406 135.5 L 173.75514221191406 135.5 L 175.62570190429688 135.5 L 175.62570190429688 135.5 L 177.4962615966797 135.5 L 177.4962615966797 78.35713958740234 L 179.3668212890625 78.35713958740234 L 179.3668212890625 135.5 L 181.2373809814453 135.5 L 181.2373809814453 135.5 L 183.10792541503906 135.5 L 183.10792541503906 135.5 L 184.97848510742188 135.5 L 184.97848510742188 135.5 L 186.8490447998047 135.5 L 186.8490447998047 135.5 L 188.7196044921875 135.5 L 188.7196044921875 116.45237731933594 L 190.5901641845703 116.45237731933594 L 190.5901641845703 135.5 L 192.46072387695312 135.5 L 192.46072387695312 116.45237731933594 L 194.33126831054688 116.45237731933594 L 194.33126831054688 135.5 L 196.2018280029297 135.5 L 196.2018280029297 135.5 L 198.0723876953125 135.5 L 198.0723876953125 135.5 L 199.9429473876953 135.5 L 199.9429473876953 135.5 L 201.81350708007812 135.5 L 201.81350708007812 135.5 L 203.68406677246094 135.5 L 203.68406677246094 135.5 L 205.55462646484375 135.5 L 205.55462646484375 135.5 L 207.4251708984375 135.5 L 207.4251708984375 135.5 L 209.2957305908203 135.5 L 209.2957305908203 135.5 L 211.16629028320312 135.5 L 211.16629028320312 135.5 L 213.03684997558594 135.5 L 213.03684997558594 135.5 L 214.90740966796875 135.5 L 214.90740966796875 135.5 L 216.77796936035156 135.5 L 216.77796936035156 135.5 L 218.64852905273438 135.5 L 218.64852905273438 135.5 L 220.51907348632812 135.5 L 220.51907348632812 135.5 L 222.38963317871094 135.5 L 222.38963317871094 135.5 L 224.26019287109375 135.5 L 224.26019287109375 135.5 L 226.13075256347656 135.5 L 226.13075256347656 135.5 L 228.00131225585938 135.5 L 228.00131225585938 135.5 L 229.8718719482422 135.5 L 229.8718719482422 135.5 L 231.742431640625 135.5 L 231.742431640625 135.5 L 233.61297607421875 135.5 L 233.61297607421875 135.5 L 235.48353576660156 135.5 L 235.48353576660156 116.45237731933594 L 237.35409545898438 116.45237731933594 L 237.35409545898438 135.5 L 239.2246551513672 135.5 L 239.2246551513672 135.5 L 241.09521484375 135.5 L 241.09521484375 135.5 L 242.9657745361328 135.5 L 242.9657745361328 135.5 L 244.83631896972656 135.5 L 244.83631896972656 135.5 L 246.70687866210938 135.5 L 246.70687866210938 135.5 L 248.5774383544922 135.5 L 248.5774383544922 135.5 L 250.447998046875 135.5 L 250.447998046875 135.5 L 252.3185577392578 135.5 L 252.3185577392578 135.5 L 254.18911743164062 135.5 L 254.18911743164062 135.5 L 256.05967712402344 135.5 L 256.05967712402344 135.5 L 257.93023681640625 135.5 L 257.93023681640625 135.5 L 259.80078125 135.5 L 259.80078125 135.5 L 261.6713562011719 135.5 L 261.6713562011719 135.5 L 263.5419006347656 135.5 L 263.5419006347656 135.5 L 265.4124450683594 135.5 L 265.4124450683594 135.5 L 267.28302001953125 135.5 L 267.28302001953125 135.5 L 269.153564453125 135.5 L 269.153564453125 135.5 L 271.0241394042969 135.5 L 271.0241394042969 135.5 L 272.8946838378906 135.5 L 272.8946838378906 135.5 L 274.7652587890625 135.5 L 274.7652587890625 135.5 L 276.63580322265625 135.5 L 276.63580322265625 135.5 L 278.50634765625 135.5 L 278.50634765625 135.5 L 280.3769226074219 135.5 L 280.3769226074219 135.5 L 282.2474670410156 135.5 L 282.2474670410156 135.5 L 284.1180419921875 135.5 L 284.1180419921875 135.5 L 285.98858642578125 135.5 L 285.98858642578125 135.5 L 287.8591613769531 135.5 L 287.8591613769531 135.5 L 289.7297058105469 135.5 L 289.7297058105469 135.5 L 291.6002502441406 135.5 L 291.6002502441406 135.5 L 293.4708251953125 135.5 L 293.4708251953125 135.5 L 295.34136962890625 135.5 L 295.34136962890625 135.5 L 297.2119445800781 135.5 L 297.2119445800781 135.5 L 299.0824890136719 135.5 L 299.0824890136719 135.5 L 300.95306396484375 135.5 L 300.95306396484375 135.5 L 302.8236083984375 135.5 L 302.8236083984375 135.5 L 304.69415283203125 135.5 L 304.69415283203125 135.5 L 306.5647277832031 135.5 L 306.5647277832031 135.5 L 308.4352722167969 135.5 L 308.4352722167969 135.5 L 310.30584716796875 135.5 L 310.30584716796875 135.5 L 312.1763916015625 135.5 L 312.1763916015625 135.5 L 314.04693603515625 135.5 L 314.04693603515625 135.5 L 315.9175109863281 135.5 L 315.9175109863281 135.5 L 317.7880554199219 135.5 L 317.7880554199219 135.5 L 319.65863037109375 135.5 L 319.65863037109375 135.5 L 321.5291748046875 135.5 L 321.5291748046875 135.5 L 323.3997497558594 135.5 L 323.3997497558594 135.5 L 325.2702941894531 135.5 L 325.2702941894531 135.5 L 327.1408386230469 135.5 L 327.1408386230469 135.5 L 329.01141357421875 135.5 L 329.01141357421875 135.5 L 330.8819580078125 135.5 L 330.8819580078125 135.5 L 332.7525329589844 135.5 L 332.7525329589844 135.5 L 334.6230773925781 135.5 L 334.6230773925781 135.5 L 336.49365234375 135.5 L 336.49365234375 135.5 L 338.36419677734375 135.5 L 338.36419677734375 135.5 L 340.2347412109375 135.5 L 340.2347412109375 135.5 L 342.1053161621094 135.5 L 342.1053161621094 135.5 L 343.9758605957031 135.5 L 343.9758605957031 135.5 L 345.846435546875 135.5 L 345.846435546875 135.5 L 347.71697998046875 135.5 L 347.71697998046875 135.5 L 349.5875549316406 135.5 L 349.5875549316406 135.5 L 351.4580993652344 135.5 L 351.4580993652344 135.5 L 353.3286437988281 135.5 L 353.3286437988281 135.5 L 355.19921875 135.5 L 355.19921875 135.5 L 357.06976318359375 135.5 L 357.06976318359375 135.5 L 358.9403381347656 135.5 L 358.9403381347656 135.5 L 360.8108825683594 135.5 L 360.8108825683594 135.5 L 362.68145751953125 135.5 L 362.68145751953125 135.5 L 364.552001953125 135.5 L 364.552001953125 135.5 L 366.42254638671875 135.5 L 366.42254638671875 135.5 L 368.2931213378906 135.5 L 368.2931213378906 135.5 L 370.1636657714844 135.5 L 370.1636657714844 135.5 L 372.03424072265625 135.5 L 372.03424072265625 135.5 L 373.90478515625 135.5 L 373.90478515625 135.5 L 375.7753601074219 135.5 L 375.7753601074219 135.5 L 377.6459045410156 135.5 L 377.6459045410156 135.5 L 379.5164489746094 135.5 L 379.5164489746094 135.5 L 381.38702392578125 135.5 L 381.38702392578125 135.5 L 383.257568359375 135.5 L 383.257568359375 135.5 L 385.1281433105469 135.5 L 385.1281433105469 135.5 L 386.9986877441406 135.5 L 386.9986877441406 135.5 L 388.8692626953125 135.5 L 388.8692626953125 135.5 L 390.73980712890625 135.5 L 390.73980712890625 135.5 L 392.6103515625 135.5 L 392.6103515625 135.5 L 394.4809265136719 135.5 L 394.4809265136719 135.5 L 396.3514709472656 135.5 L 396.3514709472656 135.5 L 398.2220458984375 135.5 L 398.2220458984375 135.5 L 400.09259033203125 135.5 L 400.09259033203125 135.5 L 401.963134765625 135.5 L 401.963134765625 135.5 L 403.8337097167969 135.5 L 403.8337097167969 135.5 L 405.7042541503906 135.5 L 405.7042541503906 135.5 L 407.5748291015625 135.5 L 407.5748291015625 135.5 L 409.44537353515625 135.5 L 409.44537353515625 135.5 L 411.3159484863281 135.5 L 411.3159484863281 135.5 L 413.1864929199219 135.5 L 413.1864929199219 135.5 L 415.0570373535156 135.5 L 415.0570373535156 135.5 L 416.9276123046875 135.5 L 416.9276123046875 135.5 L 418.79815673828125 135.5 L 418.79815673828125 135.5 L 420.6687316894531 135.5 L 420.6687316894531 135.5 L 422.5392761230469 135.5 L 422.5392761230469 135.5 L 424.40985107421875 135.5 L 424.40985107421875 135.5 L 426.2803955078125 135.5 L 426.2803955078125 135.5 L 428.15093994140625 135.5 L 428.15093994140625 135.5 L 430.0215148925781 135.5 L 430.0215148925781 135.5 L 431.8920593261719 135.5 L 431.8920593261719 135.5 L 433.76263427734375 135.5 L 433.76263427734375 135.5 L 435.6331787109375 135.5 L 435.6331787109375 135.5 L 437.5037536621094 135.5 L 437.5037536621094 135.5 L 439.3742980957031 135.5 L 439.3742980957031 135.5 L 441.2448425292969 135.5 L 441.2448425292969 135.5 L 443.11541748046875 135.5 L 443.11541748046875 135.5 L 444.9859619140625 135.5 L 444.9859619140625 135.5 L 446.8565368652344 135.5 L 446.8565368652344 135.5 L 448.7270812988281 135.5 L 448.7270812988281 135.5 L 450.59765625 135.5 L 450.59765625 135.5 L 452.46820068359375 135.5 L 452.46820068359375 135.5 L 454.3387451171875 135.5 L 454.3387451171875 135.5 L 456.2093200683594 135.5 L 456.2093200683594 135.5 L 458.0798645019531 135.5 L 458.0798645019531 135.5 L 459.950439453125 135.5 L 459.950439453125 135.5 L 461.82098388671875 135.5 L 461.82098388671875 135.5 L 463.6915588378906 135.5 L 463.6915588378906 135.5 L 465.5621032714844 135.5 L 465.5621032714844 135.5 L 467.4326477050781 135.5 L 467.4326477050781 135.5 L 469.30322265625 135.5 L 469.30322265625 135.5 L 471.17376708984375 135.5 L 471.17376708984375 135.5 L 473.0443420410156 135.5 L 473.0443420410156 135.5 L 474.9148864746094 135.5 L 474.9148864746094 135.5 L 476.78546142578125 135.5 L 476.78546142578125 135.5 L 478.656005859375 135.5 L 478.656005859375 135.5 L 480.52655029296875 135.5 L 480.52655029296875 135.5 L 482.3971252441406 135.5 L 482.3971252441406 135.5 L 484.2676696777344 135.5 L 484.2676696777344 135.5 L 486.13824462890625 135.5 L 486.13824462890625 135.5 L 488.0087890625 135.5 L 488.0087890625 135.5 L 489.8793640136719 135.5 L 489.8793640136719 135.5 L 491.7499084472656 135.5 L 491.7499084472656 135.5 L 493.6204528808594 135.5 L 493.6204528808594 135.5 L 495.49102783203125 135.5 L 495.49102783203125 135.5 L 497.361572265625 135.5 L 497.361572265625 135.5 L 499.2321472167969 135.5 L 499.2321472167969 135.5 L 501.1026916503906 135.5 L 501.1026916503906 135.5 L 502.9732360839844 135.5 L 502.9732360839844 135.5 L 504.84381103515625 135.5 L 504.84381103515625 135.5 L 506.71435546875 135.5 L 506.71435546875 135.5 L 508.5849304199219 135.5 L 508.5849304199219 135.5 L 510.4554748535156 135.5 L 510.4554748535156 135.5 L 512.3260498046875 135.5 L 512.3260498046875 135.5 L 514.1965942382812 135.5 L 514.1965942382812 135.5 L 516.067138671875 135.5 L 516.067138671875 135.5 L 517.9376831054688 135.5 L 517.9376831054688 135.5 L 519.8082885742188 135.5 L 519.8082885742188 135.5 L 521.6788330078125 135.5 L 521.6788330078125 135.5 L 523.5493774414062 135.5 L 523.5493774414062 135.5 L 525.419921875 135.5 L 525.419921875 135.5 L 527.29052734375 135.5 L 527.29052734375 135.5 L 529.1610717773438 135.5 L 529.1610717773438 135.5 L 531.0316162109375 135.5 L 531.0316162109375 135.5 L 532.9021606445312 135.5 L 532.9021606445312 116.45237731933594 L 534.772705078125 116.45237731933594 L 534.772705078125 135.5 L 534.772705078125 135.5 L 80.2272720336914 135.5 Z" fill-opacity="0.30196078431372547" clip-path="url(#cJgGXGTGohbV)"/><path fill="none" stroke="rgb(31,119,179)" paint-order="fill" d="M 533.8790893554688 135.5 L 533.8790893554688 130.73809814453125" stroke-opacity="0.5019607843137255" stroke-linejoin="bevel" stroke-miterlimit="10" stroke-width="0.5" stroke-dasharray="" clip-path="url(#ZtmeEutwXhEJ)"/><path fill="none" stroke="rgb(31,119,179)" paint-order="fill" d="M 119.48893737792969 135.5 L 119.48893737792969 130.73809814453125" stroke-opacity="0.5019607843137255" stroke-linejoin="bevel" stroke-miterlimit="10" stroke-width="0.5" stroke-dasharray="" clip-path="url(#ZtmeEutwXhEJ)"/><path fill="none" stroke="rgb(31,119,179)" paint-order="fill" d="M 89.10782623291016 135.5 L 89.10782623291016 130.73809814453125" stroke-opacity="0.5019607843137255" stroke-linejoin="bevel" stroke-miterlimit="10" stroke-width="0.5" stroke-dasharray="" clip-path="url(#ZtmeEutwXhEJ)"/><path fill="none" stroke="rgb(31,119,179)" paint-order="fill" d="M 103.55193328857422 135.5 L 103.55193328857422 130.73809814453125" stroke-opacity="0.5019607843137255" stroke-linejoin="bevel" stroke-miterlimit="10" stroke-width="0.5" stroke-dasharray="" clip-path="url(#ZtmeEutwXhEJ)"/><path fill="none" stroke="rgb(31,119,179)" paint-order="fill" d="M 99.51624298095703 135.5 L 99.51624298095703 130.73809814453125" stroke-opacity="0.5019607843137255" stroke-linejoin="bevel" stroke-miterlimit="10" stroke-width="0.5" stroke-dasharray="" clip-path="url(#ZtmeEutwXhEJ)"/><path fill="none" stroke="rgb(31,119,179)" paint-order="fill" d="M 119.83346557617188 135.5 L 119.83346557617188 130.73809814453125" stroke-opacity="0.5019607843137255" stroke-linejoin="bevel" stroke-miterlimit="10" stroke-width="0.5" stroke-dasharray="" clip-path="url(#ZtmeEutwXhEJ)"/><path fill="none" stroke="rgb(31,119,179)" paint-order="fill" d="M 106.5716552734375 135.5 L 106.5716552734375 130.73809814453125" stroke-opacity="0.5019607843137255" stroke-linejoin="bevel" stroke-miterlimit="10" stroke-width="0.5" stroke-dasharray="" clip-path="url(#ZtmeEutwXhEJ)"/><path fill="none" stroke="rgb(31,119,179)" paint-order="fill" d="M 94.73564147949219 135.5 L 94.73564147949219 130.73809814453125" stroke-opacity="0.5019607843137255" stroke-linejoin="bevel" stroke-miterlimit="10" stroke-width="0.5" stroke-dasharray="" clip-path="url(#ZtmeEutwXhEJ)"/><path fill="none" stroke="rgb(31,119,179)" paint-order="fill" d="M 80.2272720336914 135.5 L 80.2272720336914 130.73809814453125" stroke-opacity="0.5019607843137255" stroke-linejoin="bevel" stroke-miterlimit="10" stroke-width="0.5" stroke-dasharray="" clip-path="url(#ZtmeEutwXhEJ)"/><path fill="none" stroke="rgb(31,119,179)" paint-order="fill" d="M 114.60153198242188 135.5 L 114.60153198242188 130.73809814453125" stroke-opacity="0.5019607843137255" stroke-linejoin="bevel" stroke-miterlimit="10" stroke-width="0.5" stroke-dasharray="" clip-path="url(#ZtmeEutwXhEJ)"/><path fill="none" stroke="rgb(31,119,179)" paint-order="fill" d="M 122.58260345458984 135.5 L 122.58260345458984 130.73809814453125" stroke-opacity="0.5019607843137255" stroke-linejoin="bevel" stroke-miterlimit="10" stroke-width="0.5" stroke-dasharray="" clip-path="url(#ZtmeEutwXhEJ)"/><path fill="none" stroke="rgb(31,119,179)" paint-order="fill" d="M 192.57569885253906 135.5 L 192.57569885253906 130.73809814453125" stroke-opacity="0.5019607843137255" stroke-linejoin="bevel" stroke-miterlimit="10" stroke-width="0.5" stroke-dasharray="" clip-path="url(#ZtmeEutwXhEJ)"/><path fill="none" stroke="rgb(31,119,179)" paint-order="fill" d="M 177.63540649414062 135.5 L 177.63540649414062 130.73809814453125" stroke-opacity="0.5019607843137255" stroke-linejoin="bevel" stroke-miterlimit="10" stroke-width="0.5" stroke-dasharray="" clip-path="url(#ZtmeEutwXhEJ)"/><path fill="none" stroke="rgb(31,119,179)" paint-order="fill" d="M 177.63540649414062 135.5 L 177.63540649414062 130.73809814453125" stroke-opacity="0.5019607843137255" stroke-linejoin="bevel" stroke-miterlimit="10" stroke-width="0.5" stroke-dasharray="" clip-path="url(#ZtmeEutwXhEJ)"/><path fill="none" stroke="rgb(31,119,179)" paint-order="fill" d="M 112.21450805664062 135.5 L 112.21450805664062 130.73809814453125" stroke-opacity="0.5019607843137255" stroke-linejoin="bevel" stroke-miterlimit="10" stroke-width="0.5" stroke-dasharray="" clip-path="url(#ZtmeEutwXhEJ)"/><path fill="none" stroke="rgb(31,119,179)" paint-order="fill" d="M 125.07386016845703 135.5 L 125.07386016845703 130.73809814453125" stroke-opacity="0.5019607843137255" stroke-linejoin="bevel" stroke-miterlimit="10" stroke-width="0.5" stroke-dasharray="" clip-path="url(#ZtmeEutwXhEJ)"/><path fill="none" stroke="rgb(31,119,179)" paint-order="fill" d="M 117.82213592529297 135.5 L 117.82213592529297 130.73809814453125" stroke-opacity="0.5019607843137255" stroke-linejoin="bevel" stroke-miterlimit="10" stroke-width="0.5" stroke-dasharray="" clip-path="url(#ZtmeEutwXhEJ)"/><path fill="none" stroke="rgb(31,119,179)" paint-order="fill" d="M 116.50724792480469 135.5 L 116.50724792480469 130.73809814453125" stroke-opacity="0.5019607843137255" stroke-linejoin="bevel" stroke-miterlimit="10" stroke-width="0.5" stroke-dasharray="" clip-path="url(#ZtmeEutwXhEJ)"/><path fill="none" stroke="rgb(31,119,179)" paint-order="fill" d="M 82.2440185546875 135.5 L 82.2440185546875 130.73809814453125" stroke-opacity="0.5019607843137255" stroke-linejoin="bevel" stroke-miterlimit="10" stroke-width="0.5" stroke-dasharray="" clip-path="url(#ZtmeEutwXhEJ)"/><path fill="none" stroke="rgb(31,119,179)" paint-order="fill" d="M 82.2440185546875 135.5 L 82.2440185546875 130.73809814453125" stroke-opacity="0.5019607843137255" stroke-linejoin="bevel" stroke-miterlimit="10" stroke-width="0.5" stroke-dasharray="" clip-path="url(#ZtmeEutwXhEJ)"/><path fill="none" stroke="rgb(31,119,179)" paint-order="fill" d="M 135.17457580566406 135.5 L 135.17457580566406 130.73809814453125" stroke-opacity="0.5019607843137255" stroke-linejoin="bevel" stroke-miterlimit="10" stroke-width="0.5" stroke-dasharray="" clip-path="url(#ZtmeEutwXhEJ)"/><path fill="none" stroke="rgb(31,119,179)" paint-order="fill" d="M 117.59008026123047 135.5 L 117.59008026123047 130.73809814453125" stroke-opacity="0.5019607843137255" stroke-linejoin="bevel" stroke-miterlimit="10" stroke-width="0.5" stroke-dasharray="" clip-path="url(#ZtmeEutwXhEJ)"/><path fill="none" stroke="rgb(31,119,179)" paint-order="fill" d="M 189.9389190673828 135.5 L 189.9389190673828 130.73809814453125" stroke-opacity="0.5019607843137255" stroke-linejoin="bevel" stroke-miterlimit="10" stroke-width="0.5" stroke-dasharray="" clip-path="url(#ZtmeEutwXhEJ)"/><path fill="none" stroke="rgb(31,119,179)" paint-order="fill" d="M 105.37804412841797 135.5 L 105.37804412841797 130.73809814453125" stroke-opacity="0.5019607843137255" stroke-linejoin="bevel" stroke-miterlimit="10" stroke-width="0.5" stroke-dasharray="" clip-path="url(#ZtmeEutwXhEJ)"/><path fill="none" stroke="rgb(31,119,179)" paint-order="fill" d="M 235.8080291748047 135.5 L 235.8080291748047 130.73809814453125" stroke-opacity="0.5019607843137255" stroke-linejoin="bevel" stroke-miterlimit="10" stroke-width="0.5" stroke-dasharray="" clip-path="url(#ZtmeEutwXhEJ)"/><path fill="none" stroke="rgb(31,119,179)" paint-order="fill" d="M 107.25696563720703 135.5 L 107.25696563720703 130.73809814453125" stroke-opacity="0.5019607843137255" stroke-linejoin="bevel" stroke-miterlimit="10" stroke-width="0.5" stroke-dasharray="" clip-path="url(#ZtmeEutwXhEJ)"/><path fill="none" stroke="rgb(31,119,179)" paint-order="fill" d="M 89.6248779296875 135.5 L 89.6248779296875 130.73809814453125" stroke-opacity="0.5019607843137255" stroke-linejoin="bevel" stroke-miterlimit="10" stroke-width="0.5" stroke-dasharray="" clip-path="url(#ZtmeEutwXhEJ)"/><path fill="none" stroke="rgb(31,119,179)" paint-order="fill" d="M 178.7196807861328 135.5 L 178.7196807861328 130.73809814453125" stroke-opacity="0.5019607843137255" stroke-linejoin="bevel" stroke-miterlimit="10" stroke-width="0.5" stroke-dasharray="" clip-path="url(#ZtmeEutwXhEJ)"/><path fill="none" stroke="rgb(31,119,179)" paint-order="fill" d="M 90.88713073730469 135.5 L 90.88713073730469 130.73809814453125" stroke-opacity="0.5019607843137255" stroke-linejoin="bevel" stroke-miterlimit="10" stroke-width="0.5" stroke-dasharray="" clip-path="url(#ZtmeEutwXhEJ)"/><path fill="none" stroke="rgb(31,119,179)" paint-order="fill" d="M 90.88713073730469 135.5 L 90.88713073730469 130.73809814453125" stroke-opacity="0.5019607843137255" stroke-linejoin="bevel" stroke-miterlimit="10" stroke-width="0.5" stroke-dasharray="" clip-path="url(#ZtmeEutwXhEJ)"/><path fill="none" stroke="rgb(31,119,179)" paint-order="fill" d="M 101.11163330078125 135.5 L 101.11163330078125 130.73809814453125" stroke-opacity="0.5019607843137255" stroke-linejoin="bevel" stroke-miterlimit="10" stroke-width="0.5" stroke-dasharray="" clip-path="url(#ZtmeEutwXhEJ)"/><path fill="none" stroke="rgb(31,119,179)" paint-order="fill" d="M 101.11163330078125 135.5 L 101.11163330078125 130.73809814453125" stroke-opacity="0.5019607843137255" stroke-linejoin="bevel" stroke-miterlimit="10" stroke-width="0.5" stroke-dasharray="" clip-path="url(#ZtmeEutwXhEJ)"/><path fill="none" stroke="rgb(31,119,179)" paint-order="fill" d="M 107.80310821533203 135.5 L 107.80310821533203 130.73809814453125" stroke-opacity="0.5019607843137255" stroke-linejoin="bevel" stroke-miterlimit="10" stroke-width="0.5" stroke-dasharray="" clip-path="url(#ZtmeEutwXhEJ)"/><path fill="none" stroke="rgb(31,119,179)" paint-order="fill" d="M 115.49674224853516 135.5 L 115.49674224853516 130.73809814453125" stroke-opacity="0.5019607843137255" stroke-linejoin="bevel" stroke-miterlimit="10" stroke-width="0.5" stroke-dasharray="" clip-path="url(#ZtmeEutwXhEJ)"/><path fill="none" stroke="rgb(31,119,179)" paint-order="fill" d="M 96.65980529785156 135.5 L 96.65980529785156 130.73809814453125" stroke-opacity="0.5019607843137255" stroke-linejoin="bevel" stroke-miterlimit="10" stroke-width="0.5" stroke-dasharray="" clip-path="url(#ZtmeEutwXhEJ)"/><path fill="none" stroke="rgb(31,119,179)" paint-order="fill" d="M 116.58108520507812 135.5 L 116.58108520507812 130.73809814453125" stroke-opacity="0.5019607843137255" stroke-linejoin="bevel" stroke-miterlimit="10" stroke-width="0.5" stroke-dasharray="" clip-path="url(#ZtmeEutwXhEJ)"/><path fill="none" stroke="rgb(31,119,179)" paint-order="fill" d="M 109.18809509277344 135.5 L 109.18809509277344 130.73809814453125" stroke-opacity="0.5019607843137255" stroke-linejoin="bevel" stroke-miterlimit="10" stroke-width="0.5" stroke-dasharray="" clip-path="url(#ZtmeEutwXhEJ)"/><path fill="none" stroke="rgb(31,119,179)" paint-order="fill" d="M 102.09290313720703 135.5 L 102.09290313720703 130.73809814453125" stroke-opacity="0.5019607843137255" stroke-linejoin="bevel" stroke-miterlimit="10" stroke-width="0.5" stroke-dasharray="" clip-path="url(#ZtmeEutwXhEJ)"/><path fill="none" stroke="rgb(31,119,179)" paint-order="fill" d="M 81.02828979492188 135.5 L 81.02828979492188 130.73809814453125" stroke-opacity="0.5019607843137255" stroke-linejoin="bevel" stroke-miterlimit="10" stroke-width="0.5" stroke-dasharray="" clip-path="url(#ZtmeEutwXhEJ)"/><path fill="none" stroke="rgb(31,119,179)" paint-order="fill" d="M 81.02828979492188 135.5 L 81.02828979492188 130.73809814453125" stroke-opacity="0.5019607843137255" stroke-linejoin="bevel" stroke-miterlimit="10" stroke-width="0.5" stroke-dasharray="" clip-path="url(#ZtmeEutwXhEJ)"/><path fill="none" stroke="rgb(31,119,179)" paint-order="fill" d="M 82.2440185546875 135.5 L 82.2440185546875 130.73809814453125" stroke-opacity="0.5019607843137255" stroke-linejoin="bevel" stroke-miterlimit="10" stroke-width="0.5" stroke-dasharray="" clip-path="url(#ZtmeEutwXhEJ)"/><path fill="none" stroke="rgb(31,119,179)" paint-order="fill" d="M 80.2272720336914 135.5 L 80.2272720336914 130.73809814453125" stroke-opacity="0.5019607843137255" stroke-linejoin="bevel" stroke-miterlimit="10" stroke-width="0.5" stroke-dasharray="" clip-path="url(#ZtmeEutwXhEJ)"/><path fill="none" stroke="rgb(31,119,179)" paint-order="fill" d="M 80.2272720336914 135.5 L 80.2272720336914 130.73809814453125" stroke-opacity="0.5019607843137255" stroke-linejoin="bevel" stroke-miterlimit="10" stroke-width="0.5" stroke-dasharray="" clip-path="url(#ZtmeEutwXhEJ)"/><path fill="none" stroke="rgb(31,119,179)" paint-order="fill" d="M 86.24080657958984 135.5 L 86.24080657958984 130.73809814453125" stroke-opacity="0.5019607843137255" stroke-linejoin="bevel" stroke-miterlimit="10" stroke-width="0.5" stroke-dasharray="" clip-path="url(#ZtmeEutwXhEJ)"/><path fill="none" stroke="rgb(31,119,179)" paint-order="fill" d="M 132.60205078125 135.5 L 132.60205078125 130.73809814453125" stroke-opacity="0.5019607843137255" stroke-linejoin="bevel" stroke-miterlimit="10" stroke-width="0.5" stroke-dasharray="" clip-path="url(#ZtmeEutwXhEJ)"/><path fill="none" stroke="rgb(31,119,179)" paint-order="fill" d="M 94.84635162353516 135.5 L 94.84635162353516 130.73809814453125" stroke-opacity="0.5019607843137255" stroke-linejoin="bevel" stroke-miterlimit="10" stroke-width="0.5" stroke-dasharray="" clip-path="url(#ZtmeEutwXhEJ)"/><path fill="none" stroke="rgb(31,119,179)" paint-order="fill" d="M 137.13880920410156 135.5 L 137.13880920410156 130.73809814453125" stroke-opacity="0.5019607843137255" stroke-linejoin="bevel" stroke-miterlimit="10" stroke-width="0.5" stroke-dasharray="" clip-path="url(#ZtmeEutwXhEJ)"/><path fill="none" stroke="rgb(0,0,0)" paint-order="fill" d="M 110.15618896484375 135.5 L 110.15618896484382 -1064.5" stroke-opacity="1" stroke-linejoin="bevel" stroke-miterlimit="10" stroke-width="2" stroke-dasharray="" clip-path="url(#CBJcZTcRToSF)"/><path fill="none" stroke="rgb(0,0,0)" paint-order="fill" d="M 57.5 135.5 L 557.5 135.5" stroke-opacity="1" stroke-linejoin="bevel" stroke-miterlimit="10" stroke-dasharray=""/><path fill="none" stroke="rgb(0,0,0)" paint-order="fill" d="M 80.5 141.5 L 80.5 133.5 M 173.5 141.5 L 173.5 133.5 M 267.5 141.5 L 267.5 133.5 M 360.5 141.5 L 360.5 133.5 M 454.5 141.5 L 454.5 133.5 M 547.5 141.5 L 547.5 133.5" stroke-opacity="1" stroke-linejoin="bevel" stroke-miterlimit="10" stroke-dasharray=""/><path fill="none" stroke="rgb(0,0,0)" paint-order="fill" d="M 61.5 139.5 L 61.5 135.5 M 80.5 139.5 L 80.5 135.5 M 98.5 139.5 L 98.5 135.5 M 117.5 139.5 L 117.5 135.5 M 136.5 139.5 L 136.5 135.5 M 155.5 139.5 L 155.5 135.5 M 173.5 139.5 L 173.5 135.5 M 192.5 139.5 L 192.5 135.5 M 211.5 139.5 L 211.5 135.5 M 229.5 139.5 L 229.5 135.5 M 248.5 139.5 L 248.5 135.5 M 267.5 139.5 L 267.5 135.5 M 285.5 139.5 L 285.5 135.5 M 304.5 139.5 L 304.5 135.5 M 323.5 139.5 L 323.5 135.5 M 342.5 139.5 L 342.5 135.5 M 360.5 139.5 L 360.5 135.5 M 379.5 139.5 L 379.5 135.5 M 398.5 139.5 L 398.5 135.5 M 416.5 139.5 L 416.5 135.5 M 435.5 139.5 L 435.5 135.5 M 454.5 139.5 L 454.5 135.5 M 473.5 139.5 L 473.5 135.5 M 491.5 139.5 L 491.5 135.5 M 510.5 139.5 L 510.5 135.5 M 529.5 139.5 L 529.5 135.5 M 547.5 139.5 L 547.5 135.5" stroke-opacity="1" stroke-linejoin="bevel" stroke-miterlimit="10" stroke-dasharray=""/><text fill="rgb(68,68,68)" stroke="none" font-family="helvetica" font-size="14pt" font-style="normal" font-weight="normal" text-decoration="normal" x="73.7606053352356" y="160" text-anchor="start" dominant-baseline="alphabetic" transform="matrix(1, 0, 0, 1, 0.5, 0.5)" fill-opacity="1">0</text><text fill="rgb(68,68,68)" stroke="none" font-family="helvetica" font-size="14pt" font-style="normal" font-weight="normal" text-decoration="normal" x="161.32180881500244" y="160" text-anchor="start" dominant-baseline="alphabetic" transform="matrix(1, 0, 0, 1, 0.5, 0.5)" fill-opacity="1">50</text><text fill="rgb(68,68,68)" stroke="none" font-family="helvetica" font-size="14pt" font-style="normal" font-weight="normal" text-decoration="normal" x="248.88302040100098" y="160" text-anchor="start" dominant-baseline="alphabetic" transform="matrix(1, 0, 0, 1, 0.5, 0.5)" fill-opacity="1">100</text><text fill="rgb(68,68,68)" stroke="none" font-family="helvetica" font-size="14pt" font-style="normal" font-weight="normal" text-decoration="normal" x="342.4108829498291" y="160" text-anchor="start" dominant-baseline="alphabetic" transform="matrix(1, 0, 0, 1, 0.5, 0.5)" fill-opacity="1">150</text><text fill="rgb(68,68,68)" stroke="none" font-family="helvetica" font-size="14pt" font-style="normal" font-weight="normal" text-decoration="normal" x="435.9387454986572" y="160" text-anchor="start" dominant-baseline="alphabetic" transform="matrix(1, 0, 0, 1, 0.5, 0.5)" fill-opacity="1">200</text><text fill="rgb(68,68,68)" stroke="none" font-family="helvetica" font-size="14pt" font-style="normal" font-weight="normal" text-decoration="normal" x="526.2000007629395" y="160" text-anchor="start" dominant-baseline="alphabetic" transform="matrix(1, 0, 0, 1, 0.5, 0.5)" fill-opacity="1">250</text><text fill="rgb(68,68,68)" stroke="none" font-family="helvetica" font-size="14pt" font-style="normal" font-weight="normal" text-decoration="normal" x="199.625" y="186" text-anchor="start" dominant-baseline="alphabetic" transform="matrix(1, 0, 0, 1, 0.5, 0.5)" fill-opacity="1">Euclidean distance [Å]</text><path fill="none" stroke="rgb(0,0,0)" paint-order="fill" d="M 57.5 135.5 L 57.5 35.5" stroke-opacity="1" stroke-linejoin="bevel" stroke-miterlimit="10" stroke-dasharray=""/><path fill="none" stroke="rgb(0,0,0)" paint-order="fill" d="M 51.5 135.5 L 59.5 135.5 M 51.5 97.5 L 59.5 97.5 M 51.5 59.5 L 59.5 59.5" stroke-opacity="1" stroke-linejoin="bevel" stroke-miterlimit="10" stroke-dasharray=""/><path fill="none" stroke="rgb(0,0,0)" paint-order="fill" d="M 53.5 135.5 L 57.5 135.5 M 53.5 127.5 L 57.5 127.5 M 53.5 120.5 L 57.5 120.5 M 53.5 112.5 L 57.5 112.5 M 53.5 105.5 L 57.5 105.5 M 53.5 97.5 L 57.5 97.5 M 53.5 89.5 L 57.5 89.5 M 53.5 82.5 L 57.5 82.5 M 53.5 74.5 L 57.5 74.5 M 53.5 66.5 L 57.5 66.5 M 53.5 59.5 L 57.5 59.5 M 53.5 51.5 L 57.5 51.5 M 53.5 44.5 L 57.5 44.5 M 53.5 36.5 L 57.5 36.5" stroke-opacity="1" stroke-linejoin="bevel" stroke-miterlimit="10" stroke-dasharray=""/><text fill="rgb(68,68,68)" stroke="none" font-family="helvetica" font-size="14pt" font-style="normal" font-weight="normal" text-decoration="normal" x="34.06666660308838" y="142" text-anchor="start" dominant-baseline="alphabetic" transform="matrix(1, 0, 0, 1, 0.5, 0.5)" fill-opacity="1">0</text><text fill="rgb(68,68,68)" stroke="none" font-family="helvetica" font-size="14pt" font-style="normal" font-weight="normal" text-decoration="normal" x="34.06666660308838" y="103.9047622680664" text-anchor="start" dominant-baseline="alphabetic" transform="matrix(1, 0, 0, 1, 0.5, 0.5)" fill-opacity="1">2</text><text fill="rgb(68,68,68)" stroke="none" font-family="helvetica" font-size="14pt" font-style="normal" font-weight="normal" text-decoration="normal" x="34.06666660308838" y="65.80952453613281" text-anchor="start" dominant-baseline="alphabetic" transform="matrix(1, 0, 0, 1, 0.5, 0.5)" fill-opacity="1">4</text><text fill="rgb(68,68,68)" stroke="none" font-family="helvetica" font-size="14pt" font-style="normal" font-weight="normal" text-decoration="normal" x="-2.59999942779541" y="80" text-anchor="start" dominant-baseline="alphabetic" transform="matrix(6.123233995736766e-17, -1, 1, 6.123233995736766e-17, -58.43333339691162, 111.56666660308838)" fill-opacity="1">Count</text><text fill="rgb(68,68,68)" stroke="none" font-family="helvetica" font-size="14pt" font-style="normal" font-weight="bold" text-decoration="normal" x="57" y="25" text-anchor="start" dominant-baseline="alphabetic" transform="matrix(1, 0, 0, 1, 0.5, 0.5)" fill-opacity="1">Model Group 2; Heteromeric links: upper bound, 16.0 Å</text></svg>